<svg width="60" height="60" viewBox="0 0 60 60" fill="none" xmlns="http://www.w3.org/2000/svg">
<rect width="60" height="60" fill="#F99F2D"/>
<g clip-path="url(#clip0_1403_8859)">
<path d="M12.5688 25.049C12.8492 25.0055 13.1376 25.0191 13.4207 25.0164C15.5388 25.0164 17.657 25.0164 19.7752 25.0164C19.9974 25.0191 20.217 25.0082 20.4365 25.0354C20.8863 25.0817 21.3254 25.2342 21.6984 25.4956C21.9868 25.6943 22.2328 25.953 22.4392 26.2416C22.8016 26.7426 23.0238 27.3498 23.082 27.9706C23.1111 28.2183 23.1006 28.4688 23.1032 28.7166C23.1032 31.1399 23.1032 33.5622 23.1032 35.9837C22.2708 35.9837 21.4401 35.9837 20.6111 35.9837C20.6111 34.8256 20.6103 33.6666 20.6085 32.5067C18.4268 32.5067 16.2452 32.5067 14.0635 32.5067C14.0635 31.6518 14.0635 30.7968 14.0635 29.9419C16.2452 29.9419 18.4277 29.9419 20.6111 29.9419C20.6094 29.41 20.6094 28.8782 20.6111 28.3463C20.6032 28.1448 20.5768 27.9324 20.463 27.7664C20.3757 27.6411 20.2223 27.5785 20.0741 27.5812C17.7196 27.5812 15.3678 27.5812 13.0133 27.5812C12.8651 27.5812 12.717 27.6574 12.6429 27.7909C12.5318 27.976 12.5186 28.1993 12.5106 28.4117C12.5106 30.9366 12.5106 33.4606 12.5106 35.9837C11.6799 35.9837 10.8492 35.9837 10.0186 35.9837C10.0186 33.4896 10.0186 30.9947 10.0186 28.4988C10.0186 28.1693 10.0424 27.8371 10.1164 27.5131C10.2593 26.8678 10.5926 26.2661 11.0582 25.806C11.463 25.3921 12.0027 25.1253 12.5688 25.049Z" fill="white"/>
<path d="M25.6428 25.4356C26.037 25.1824 26.4973 25.049 26.9603 25.0217C27.0925 25.0108 27.2275 25.019 27.3624 25.0163C30.3624 25.0163 33.3633 25.0163 36.365 25.0163C36.365 25.8712 36.365 26.7262 36.365 27.5811C33.3015 27.5811 30.2354 27.5811 27.1719 27.5811C27.0608 27.5757 26.947 27.6002 26.8597 27.671C26.7089 27.7935 26.6587 27.9977 26.6375 28.1856C26.6163 28.4388 26.6163 28.7111 26.7195 28.948C26.7857 29.1032 26.9391 29.2148 27.1058 29.2148C29.2195 29.2148 31.3306 29.2148 33.4417 29.2148C33.7063 29.2175 33.9682 29.2066 34.2301 29.2393C34.6534 29.2883 35.0687 29.4326 35.4259 29.6749C36.0661 30.1024 36.529 30.7886 36.7301 31.5428C36.8809 32.1118 36.8994 32.7108 36.8095 33.2908C36.6878 34.0532 36.3121 34.7774 35.7407 35.2839C35.365 35.6242 34.8941 35.8529 34.3968 35.9373C34.0687 35.9972 33.7327 35.9836 33.3994 35.9836C30.4841 35.9836 27.5687 35.9836 24.6534 35.9836C24.6534 35.1287 24.6534 34.2746 24.6534 33.4215C27.7116 33.4215 30.7698 33.4215 33.828 33.4215C33.9708 33.4242 34.1243 33.3752 34.2142 33.2527C34.3518 33.0648 34.3677 32.817 34.373 32.5883C34.365 32.3732 34.3491 32.1418 34.2248 31.9621C34.1428 31.8368 33.992 31.7769 33.8491 31.7796C31.6305 31.7796 29.4118 31.7796 27.1931 31.7796C26.82 31.7878 26.447 31.7252 26.0978 31.5891C25.7169 31.442 25.373 31.1997 25.0925 30.9002C24.8333 30.6306 24.6163 30.3202 24.4576 29.9772C24.2724 29.5796 24.1719 29.1386 24.1428 28.6975C24.111 28.221 24.156 27.7391 24.2909 27.2844C24.4047 26.9032 24.5846 26.5465 24.8174 26.2279C25.0449 25.9175 25.32 25.6398 25.6428 25.4356Z" fill="white"/>
<path d="M37.8943 25.0164C41.9296 25.0164 45.9648 25.0164 50.0001 25.0164V27.5812C48.3987 27.5812 46.7973 27.5812 45.1959 27.5812C45.1959 30.382 45.1959 33.1829 45.1959 35.9837C44.3652 35.9855 43.5345 35.9855 42.7038 35.9837C42.7038 33.1829 42.7038 30.382 42.7038 27.5812C41.1006 27.5812 39.4975 27.5812 37.8943 27.5812C37.8943 26.7263 37.8943 25.8713 37.8943 25.0164Z" fill="white"/>
</g>
<defs>
<clipPath id="clip0_1403_8859">
<rect width="40" height="11" fill="white" transform="translate(10 25)"/>
</clipPath>
</defs>
</svg>
