<svg width="60" height="60" viewBox="0 0 60 60" fill="none" xmlns="http://www.w3.org/2000/svg">
<rect width="60" height="60" fill="#005696"/>
<path d="M41.5088 37.0215C45.4528 37.0215 48.6496 33.8828 48.6496 30.0082C48.6496 26.1366 45.4528 22.9955 41.5088 22.9955C37.5663 22.9955 34.3699 26.1366 34.3699 30.0082C34.3699 33.8828 37.566 37.0215 41.5088 37.0215Z" fill="white"/>
<path d="M30.8635 30.0082C30.8516 25.1215 34.7078 20.1373 41.5089 20.3597L37.4483 16.5864C29.6249 19.06 26.2226 24.5929 26.4382 30.0112V29.9521C26.2233 35.3704 29.6249 40.903 37.4483 43.3762L41.5089 39.6015C34.7081 39.8249 30.8513 34.8387 30.8635 29.9541V30.0082Z" fill="white"/>
<path d="M18.9565 29.9545C18.9565 28.9842 18.2411 19.6057 30.9732 10.2795L34.8701 13.8911C23.5121 18.5817 23.5121 27.4764 23.3463 30.0082V29.9545C23.5124 32.4873 23.5124 41.3823 34.8701 46.0709L30.9732 49.6821C18.2414 40.358 18.9565 30.9795 18.9565 30.0082V29.9545Z" fill="white"/>
<path d="M10.3947 30.0082L17.8579 23.0554C15.4431 26.8281 15.5528 32.9748 17.6378 36.8529L10.3947 30.0082Z" fill="white"/>
</svg>
