<svg width="60" height="60" viewBox="0 0 60 60" fill="none" xmlns="http://www.w3.org/2000/svg">
<rect width="60" height="60" fill="#FF6600"/>
<g clip-path="url(#clip0_1772_9269)">
<path fill-rule="evenodd" clip-rule="evenodd" d="M12.0937 11H24.0245L28.9207 19.7133H21.933L26.8766 28.3312H14.9456L10.002 19.7133H16.7044L12.0937 11Z" fill="white"/>
<path fill-rule="evenodd" clip-rule="evenodd" d="M47.6961 11H35.7171L30.7744 19.7133H37.8093L32.8183 28.3312H44.7972L49.693 19.7133H42.8956L47.6961 11Z" fill="white"/>
<path fill-rule="evenodd" clip-rule="evenodd" d="M12.1534 48.3116H23.8418L28.7043 39.6472H21.8315L26.694 31.1233H14.9586L10.0493 39.6472H16.6418L12.1534 48.3116Z" fill="white"/>
<path fill-rule="evenodd" clip-rule="evenodd" d="M47.7915 48.3115H35.8126L30.8696 39.5018H37.9047L32.9137 30.8363H44.8926L49.7396 39.5018H42.9911L47.7915 48.3115Z" fill="white"/>
</g>
<defs>
<clipPath id="clip0_1772_9269">
<rect width="40" height="38" fill="white" transform="translate(10 11)"/>
</clipPath>
</defs>
</svg>
