<svg width="60" height="60" viewBox="0 0 60 60" fill="none" xmlns="http://www.w3.org/2000/svg">
<g clip-path="url(#clip0_1205_8617)">
<rect width="60" height="60" fill="white"/>
<rect width="60" height="60" fill="#FF1243"/>
<g clip-path="url(#clip1_1205_8617)">
<path fill-rule="evenodd" clip-rule="evenodd" d="M31.5816 43.7287L34.1531 45.2301C34.3047 45.3178 34.3995 45.4849 34.3995 45.663L34.394 48.6685C34.394 48.9233 34.1234 49.0822 33.9041 48.9534L31.3326 47.452C31.181 47.3644 31.0917 47.2 31.0917 47.0191V44.0164C31.0889 43.7616 31.3623 43.6 31.5816 43.7287ZM33.6469 39.5315L36.2185 38.0274C36.3701 37.9397 36.5596 37.9397 36.7111 38.0274L39.2854 39.5315C39.5019 39.6602 39.5019 39.9781 39.2854 40.1068L36.7111 41.6109C36.5596 41.6986 36.3701 41.6986 36.2185 41.6109L33.6469 40.1068C33.4304 39.9781 33.4304 39.6602 33.6469 39.5315ZM24.3353 40.1424L18.5507 43.5287C18.3747 43.6301 18.1636 43.6301 17.993 43.5287L12.2084 40.1424C11.9648 39.9972 11.9648 39.6383 12.2084 39.4931L17.993 36.1068C18.169 36.0055 18.3801 36.0055 18.5507 36.1068L24.3353 39.4931C24.5789 39.6383 24.5789 39.9972 24.3353 40.1424ZM26.9528 43.8739V48.3863C26.9528 48.5178 26.8879 48.6438 26.7742 48.7096L22.9114 50.9589C22.749 51.0548 22.5379 50.9342 22.5379 50.7424V46.2328C22.5379 46.0986 22.611 45.9753 22.7247 45.9096L26.5874 43.6575C26.7525 43.5644 26.9555 43.6822 26.9528 43.8739ZM46.9811 9.90408V26.1397C46.9838 26.6191 46.7456 27.0657 46.3314 27.3041L32.4316 35.4082C31.8415 35.7534 31.0889 35.3178 31.0889 34.6301V18.3972C31.0862 17.9178 31.3407 17.4712 31.7521 17.2328L45.652 9.12874C46.2421 8.78627 46.9811 9.21641 46.9811 9.90408ZM16.8372 17.3945L26.4899 23.0246C26.7769 23.1918 26.9528 23.5013 26.9528 23.8356V35.1123C26.9501 35.5918 26.4277 35.8904 26.019 35.652L16.3662 30.0219C16.0793 29.8575 15.9169 29.5452 15.9169 29.2137V17.937C15.9169 17.4575 16.4285 17.1561 16.8372 17.3945Z" fill="white"/>
</g>
</g>
<defs>
<clipPath id="clip0_1205_8617">
<rect width="60" height="60" fill="white"/>
</clipPath>
<clipPath id="clip1_1205_8617">
<rect width="35" height="42" fill="white" transform="translate(12 9)"/>
</clipPath>
</defs>
</svg>
