<svg width="60" height="60" viewBox="0 0 60 60" fill="none" xmlns="http://www.w3.org/2000/svg">
<rect width="60" height="60" fill="#05314D"/>
<g clip-path="url(#clip0_2542_4617)">
<path fill-rule="evenodd" clip-rule="evenodd" d="M29.9923 49.9974C18.9381 49.9974 10 41.0587 10 30C10 18.9413 18.9381 10 29.9923 10C41.049 10 49.9845 18.9413 49.9845 30C49.9845 41.0587 41.049 49.9974 29.9923 49.9974ZM48.3918 30C48.3918 19.8285 40.1701 11.6067 30 11.6067C19.8273 11.6067 11.6057 19.8285 11.6057 30C11.6057 40.1689 19.8273 48.3907 30 48.3907C40.1701 48.3907 48.3918 40.1689 48.3918 30ZM43.7474 31.7124L42.2345 31.4855L36.7552 18.8459C34.0206 24.8601 28.6985 29.5074 22.1701 31.4055C26.3505 31.7924 30.2242 33.2392 33.5696 35.4442V31.7924L38.201 32.628V39.7073C39.0584 40.6718 39.793 41.7163 40.4046 42.8407L39.4227 43.5164C35.5464 36.971 28.4742 32.628 20.3376 32.628C18.4407 32.628 16.4639 32.8549 14.7113 33.3191C14.7113 33.3191 14.3402 31.2611 14.2603 31.1012L17.9098 22.8021L21.6392 21.5126V17.1721H26.3505V19.9059L36.9794 16.1767L43.7474 31.7124ZM34.7912 36.3598C35.5954 37.0148 36.329 37.7008 36.9923 38.4178V33.6905L34.7912 33.3037V36.3598ZM38.2809 25.6983V30.2785L34.7912 29.6673V25.0999L38.2809 25.6983ZM35.9974 28.6589L37.0593 28.8188V26.6809L35.9974 26.5338V28.6589ZM35.9175 17.8375L25.2088 21.5693V18.3688H22.9253V22.3404L18.8918 23.7872L15.6263 31.2508C24.5979 31.0909 32.5747 25.6854 35.9175 17.8375Z" fill="white"/>
</g>
<defs>
<clipPath id="clip0_2542_4617">
<rect width="40" height="40" fill="white" transform="translate(10 10)"/>
</clipPath>
</defs>
</svg>
