<svg width="60" height="60" viewBox="0 0 60 60" fill="none" xmlns="http://www.w3.org/2000/svg">
<g clip-path="url(#clip0_2975_5282)">
<rect width="60" height="60" fill="white"/>
<rect width="60" height="60" fill="#002857"/>
<g clip-path="url(#clip1_2975_5282)">
<path d="M10.5889 30.4219C10.5889 22.2587 15.7338 15.2938 22.968 12.5719C16.7734 15.4917 12.488 21.778 12.488 29.0622C12.488 39.1306 20.6768 47.2922 30.7789 47.2922C39.7161 47.2922 47.1556 40.9053 48.7535 32.461C47.7322 42.0363 39.6026 49.4952 29.7242 49.4952C19.1557 49.4952 10.5889 40.956 10.5889 30.4219Z" fill="white"/>
<path d="M12.8516 29.0621C12.8516 38.9293 20.8777 46.9295 30.7787 46.9295C40.6806 46.9295 48.7067 38.9293 48.7067 29.0621C48.7067 19.1932 40.6806 11.193 30.7787 11.193C20.8777 11.193 12.8516 19.1932 12.8516 29.0621ZM12.21 29.0621C12.21 18.8398 20.5239 10.5535 30.7787 10.5535C41.0352 10.5535 49.3491 18.8398 49.3491 29.0621C49.3491 39.2827 41.0352 47.5682 30.7787 47.5682C20.5239 47.5682 12.21 39.2827 12.21 29.0621Z" fill="#BE9E55"/>
<path d="M27.5459 33.7417L27.4549 34.2589C27.4549 34.2589 25.6801 33.093 25.6801 31.7699C25.661 30.7919 27.9097 30.0343 27.9097 30.0343L27.5642 30.8293L27.6101 31.2011L27.9906 30.6846L30.0774 31.0322L29.6469 31.5404V32.4077L27.5459 33.7417ZM27.7987 18.4057H29.1387C30.412 18.4057 29.9164 20.0324 30.3453 20.686L29.863 20.2877C29.4516 20.2037 28.8676 19.2839 28.6665 18.9296L27.7987 18.4057ZM21.6842 22.864L20.9282 23.6948C20.9257 23.6982 20.6879 22.1239 22.3092 21.5343C23.3063 21.1717 24.8391 22.1106 25.6351 21.7397L24.8774 22.2985C24.3134 22.8341 22.1423 22.5314 21.6842 22.864ZM29.7287 41.6504L30.4037 42.1461C30.4045 42.1486 28.6623 42.0795 28.4028 40.2184C28.3252 39.1447 29.0737 38.2599 28.991 37.2062L29.4358 38.0778C30.6115 38.8911 29.2464 40.5477 29.7287 41.6504ZM27.2797 41.065L28.1366 41.6787C26.5988 41.3252 25.8061 40.5202 25.7235 39.1655C25.6034 37.1954 26.5663 37.0233 26.6647 34.8677L27.1579 35.6145C28.7274 37.0066 26.4912 38.9984 27.2797 41.065ZM24.6396 39.7028L25.3113 40.6259C21.0651 38.1451 23.7777 35.4082 25.2821 33.0839L25.3022 34.0643C25.8829 36.4902 23.7944 36.7264 24.6396 39.7028ZM22.1156 36.195L22.3909 37.6104L22.3976 37.6453C22.3976 37.6453 21.509 36.7447 21.3671 35.5114C21.0834 33.034 23.8445 32.3279 24.1632 30.4817L24.2049 31.636C24.0672 33.5454 22.2216 35.1629 22.1156 36.195ZM21.4088 32.2689L20.9266 33.3159C20.9257 33.3175 20.7163 32.362 21.1902 30.9499C21.5307 29.937 23.4573 28.2596 23.4573 28.2596L23.2579 29.2584C23.2812 29.5029 23.3054 29.7757 23.2737 30.0343C23.1711 30.8759 21.9746 31.4647 21.4088 32.2689ZM21.554 28.7261L20.9366 29.7624C20.9257 29.7798 21.0142 27.9968 21.3379 27.4413C21.6608 26.8858 22.9567 26.0957 22.9567 26.0957L22.5695 27.0271C22.5378 27.3897 22.5111 27.8089 22.3968 28.011C22.2466 28.2737 21.8277 28.475 21.554 28.7261ZM21.3705 25.857L20.8974 26.7668C20.8974 26.7668 20.6854 25.7647 20.9257 25.0429C21.3262 23.8379 23.4314 24.2379 24.2516 23.61L23.3029 24.415C23.1494 24.647 21.5524 25.5543 21.3705 25.857ZM21.1302 20.8889L20.7313 21.7771C20.7305 21.7788 20.587 21.3896 20.6687 20.059C20.7605 18.5828 21.6183 17.955 22.935 17.955C24.3134 17.955 25.1369 19.8228 26.0581 20.7609L25.6251 20.7941C24.2275 20.3625 23.2312 20.0648 22.31 20.2153C21.8444 20.2918 21.4272 20.6062 21.1302 20.8889ZM37.8766 28.2596C37.8766 28.2596 39.8032 29.937 40.1436 30.9499C40.6117 32.3437 40.414 33.2934 40.409 33.3175L40.036 32.2689C39.4703 31.4647 38.2738 30.8759 38.1711 30.0343C38.1394 29.7757 38.1644 29.5029 38.187 29.2584L37.8766 28.2596ZM37.0881 23.6142C37.9116 24.2354 40.0085 23.8404 40.4082 25.0429C40.646 25.7564 40.4432 26.7452 40.4382 26.7677L40.0736 25.857C39.8925 25.5543 38.2954 24.647 38.1419 24.415L37.0881 23.6142ZM35.6988 21.7397C36.4948 22.1106 38.0268 21.1717 39.0247 21.5343C40.6301 22.1181 40.4132 23.6674 40.409 23.6982L39.7607 22.864C39.3017 22.5314 37.1315 22.8341 36.5674 22.2985L35.6988 21.7397ZM40.6651 20.059C40.7461 21.3588 40.6101 21.7605 40.6034 21.7779L40.3139 20.8889C40.0177 20.6062 39.6013 20.2918 39.1357 20.2153C38.2145 20.0648 37.2182 20.3625 35.8206 20.7941L35.2758 20.7609C36.1978 19.8228 37.0205 17.955 38.3989 17.955C39.7156 17.955 40.5734 18.5828 40.6651 20.059ZM33.5352 18.4057L32.7776 18.9296C32.5773 19.2839 31.9932 20.2037 31.5819 20.2877L30.9886 20.686C31.4175 20.0324 30.9227 18.4057 32.1951 18.4057H33.5352ZM36.4339 18.3766L35.5569 18.9246C35.2766 19.2631 34.8352 20.0324 33.5043 20.3858L32.6666 20.686C33.0704 20.3758 33.8139 19.1076 33.8139 19.1076C33.8139 19.1076 34.1677 18.4057 34.9328 18.4057C35.6988 18.4057 36.4339 18.3766 36.4339 18.3766ZM39.9968 27.4413C40.3164 27.9902 40.4056 29.7374 40.4082 29.779L39.8908 28.7261C39.6171 28.475 39.1983 28.2737 39.0481 28.011C38.9338 27.8089 38.9071 27.3897 38.8754 27.0271L38.3764 26.0957C38.3764 26.0957 39.673 26.8858 39.9968 27.4413ZM37.1707 30.4817L37.2399 31.636C37.5445 32.4527 40.4031 33.9878 39.3293 36.195L38.9363 37.6453C39.265 35.9654 36.4756 33.6277 36.6992 31.7682C36.7768 31.1187 37.1707 30.4817 37.1707 30.4817ZM36.0517 33.0839L36.1435 34.0643C37.2716 35.8091 38.6951 37.6877 36.8052 39.7036L36.0225 40.6275C37.5887 36.7264 34.1602 36.3912 36.0517 33.0839ZM34.6683 34.8677L34.3154 35.6145C34.3312 37.1954 35.083 37.5247 35.113 39.1614C35.1281 39.9847 34.6032 40.7706 34.1927 41.065L33.1973 41.6804C35.1798 39.6287 31.0103 36.3754 34.6683 34.8677ZM32.3428 37.2062L32.0091 38.0778C32.0349 38.7439 32.5773 39.3659 32.5439 40.2624C32.5222 40.872 32.0842 41.3419 31.7154 41.6504L30.9294 42.1486C31.9398 41.055 29.4975 38.5227 32.3428 37.2062ZM30.6382 32.8843L33.38 34.7538L32.7233 34.9492C32.2669 35.4848 31.4091 36.3621 30.7057 36.3621C30.004 36.3621 29.1462 35.4848 28.689 34.9492L27.8946 34.7538L30.6382 32.8843ZM33.365 30.0343C33.365 30.0343 35.6137 30.7919 35.5945 31.7699L35.1623 31.9129C35.1181 32.6572 34.2962 33.4024 33.8673 33.7417L31.7663 32.4077L31.1972 32.594V31.0322L33.284 30.6846L33.365 30.0343ZM26.4011 18.4057C27.1662 18.4057 27.5192 19.1076 27.5192 19.1076C27.5192 19.1076 28.2634 20.3758 28.6673 20.686L27.9414 20.3858C26.6097 20.0324 26.1683 19.2631 25.8879 18.9246L24.9 18.3766C24.9 18.3766 25.6351 18.4057 26.4011 18.4057ZM30.7299 29.1927L30.7158 29.9769H30.6064L30.1392 29.2093H28.8325L29.7937 24.8183L30.4663 24.4849L26.1341 23.8878L25.5216 24.5131L25.7494 24.5971C25.7494 24.5971 27.4891 26.2537 28.4478 25.8479C28.5655 25.8837 28.679 25.966 28.7874 26.114L28.2768 26.4932L27.7286 28.86C27.016 29.0164 26.0798 29.4239 25.4215 29.9353L25.1336 30.7919L23.6626 26.2737L26.6656 21.6199H34.6566L37.6588 26.2737L37.1807 26.4317L36.0401 29.9353C35.3809 29.4239 34.4447 29.0164 33.7321 28.86L33.2507 29.2093L32.5347 26.114C32.6424 25.966 32.7567 25.8837 32.8743 25.8479C33.8331 26.2537 35.5728 24.5971 35.5728 24.5971L35.9232 24.484L35.3267 23.8878L30.9944 24.4849L31.9381 28.7977H30.9719" fill="white"/>
<path d="M25.2909 24.8674C25.4419 25.0105 27.0848 26.608 28.2772 26.4933L27.729 28.8601C27.0164 29.0164 26.0802 29.4239 25.4219 29.9353L24.2812 26.4317" fill="#BE9E55"/>
<path d="M20.9258 23.6982C22.0831 22.6129 25.1045 23.9518 25.6351 21.7389L24.8775 22.2986C24.3134 22.8341 22.1423 22.5314 21.6843 22.8641" fill="#D7C296"/>
<path d="M20.7305 21.7788C21.1727 21.1709 21.9579 20.6977 22.4235 20.6203C23.4857 20.444 25.5133 21.2041 25.5283 21.205L26.0581 20.7609L25.6251 20.7941C24.2274 20.3625 23.2312 20.0648 22.31 20.2153C21.8444 20.2918 21.4272 20.6062 21.1301 20.8889" fill="#D7C296"/>
<path d="M23.3029 24.415C23.1494 24.647 21.5523 25.5543 21.3704 25.857L20.8965 26.7677C21.8502 25.5976 23.9838 24.7934 24.2516 23.61" fill="#D7C296"/>
<path d="M20.9258 29.7798C21.3847 29.0305 22.6038 28.5523 22.7506 27.996C22.8983 27.4413 22.9567 26.0957 22.9567 26.0957L22.5696 27.028C22.5378 27.3905 22.5111 27.8088 22.3968 28.0109C22.2466 28.2737 21.8278 28.475 21.5541 28.7261" fill="#D7C296"/>
<path d="M20.9258 33.3176C22.164 31.5404 23.4966 31.4647 23.605 29.9553C23.6601 29.1653 23.4574 28.2596 23.4574 28.2596L23.2579 29.2584C23.2813 29.5029 23.3055 29.7757 23.2738 30.0343C23.1712 30.8759 21.9746 31.4647 21.4089 32.2689" fill="#D7C296"/>
<path d="M22.3982 37.6453C22.0703 35.9654 24.8581 33.6277 24.6353 31.7682C24.5577 31.1187 24.1638 30.4817 24.1638 30.4817L24.2055 31.636C24.0679 33.5454 22.2213 35.1629 22.1162 36.1949" fill="#D7C296"/>
<path d="M25.3124 40.6275C23.7454 36.7264 27.1739 36.3912 25.2823 33.0839L25.3023 34.0643C25.8831 36.4902 23.7946 36.7264 24.6398 39.7028" fill="#D7C296"/>
<path d="M28.1386 41.6803C26.1552 39.6287 30.3239 36.3754 26.665 34.8677L27.1582 35.6145C28.7277 37.0066 26.4915 38.9984 27.28 41.0649" fill="#D7C296"/>
<path d="M29.4359 38.0777C30.6116 38.891 29.2465 40.5476 29.7288 41.6504L30.4047 42.1485C29.3942 41.0549 31.8365 38.5226 28.9912 37.2062" fill="#D7C296"/>
<path d="M24.9004 18.3766C25.6989 19.3313 26.3723 20.9263 28.6677 20.686L27.9418 20.3858C26.6101 20.0324 26.1687 19.2631 25.8883 18.9246" fill="#D7C296"/>
<path d="M27.7988 18.4058C28.5957 19.6008 29.1113 20.9189 30.3454 20.6861L29.8631 20.2877C29.4518 20.2029 28.8677 19.284 28.6666 18.9297" fill="#D7C296"/>
<path d="M32.3432 37.2062C32.2606 38.2598 33.009 39.1447 32.9314 40.2183C32.6719 42.0795 30.9297 42.1485 30.9297 42.1485L31.7157 41.6504C32.0845 41.3418 32.5226 40.872 32.5443 40.2624C32.5776 39.3659 32.0353 38.7438 32.0094 38.0777" fill="#D7C296"/>
<path d="M34.1927 41.0649C34.6032 40.7705 35.1281 39.9847 35.1131 39.1613C35.083 37.5247 34.3312 37.1954 34.3154 35.6145L34.6691 34.8677C34.7676 37.0232 35.7313 37.1954 35.6104 39.1655C35.5277 40.5202 34.7359 41.3252 33.1973 41.6803" fill="#D7C296"/>
<path d="M36.8061 39.7028C38.6969 37.6869 37.2725 35.8091 36.1436 34.0643L36.0535 33.0839C37.5571 35.4083 40.2705 38.1451 36.0234 40.6275" fill="#D7C296"/>
<path d="M39.3295 36.1949C40.4025 33.9878 37.5447 32.4526 37.2402 31.636L37.1709 30.4817C37.4896 32.3279 40.2515 33.0339 39.967 35.5113C39.8251 36.7446 38.9365 37.6453 38.9365 37.6453" fill="#D7C296"/>
<path d="M38.1427 24.415C38.2962 24.647 39.8933 25.5543 40.0743 25.857L40.439 26.7677C39.4852 25.5976 37.3509 24.7934 37.083 23.61" fill="#D7C296"/>
<path d="M40.4094 23.6982C39.2529 22.6129 36.2299 23.9518 35.6992 21.7389L36.5678 22.2994C37.1319 22.835 39.3022 22.5314 39.7611 22.8641" fill="#D7C296"/>
<path d="M40.6049 21.7788C40.1626 21.1709 39.3766 20.6977 38.911 20.6203C37.8488 20.444 35.8212 21.2041 35.8054 21.205L35.2764 20.7609L35.8212 20.7941C37.2189 20.3625 38.2151 20.0648 39.1363 20.2153C39.6019 20.2918 40.0183 20.6062 40.3145 20.8889" fill="#D7C296"/>
<path d="M36.4351 18.3766C35.6366 19.3313 34.9624 20.9263 32.667 20.686L33.5047 20.3858C34.8356 20.0324 35.277 19.2631 35.5574 18.9246" fill="#D7C296"/>
<path d="M33.5367 18.4058C32.7398 19.6008 32.2233 20.9189 30.9893 20.6861L31.5825 20.2877C31.9939 20.2029 32.578 19.284 32.7782 18.9297" fill="#D7C296"/>
<path d="M40.4096 29.7798C39.9506 29.0305 38.7307 28.5523 38.5839 27.996C38.437 27.4413 38.377 26.0957 38.377 26.0957L38.8759 27.0271C38.9076 27.3897 38.9343 27.8088 39.0486 28.0109C39.1988 28.2737 39.6177 28.475 39.8914 28.7261" fill="#D7C296"/>
<path d="M40.409 33.3176C39.1707 31.5404 37.8373 31.4647 37.7297 29.9553C37.673 29.1653 37.8766 28.2596 37.8766 28.2596L38.187 29.2584C38.1644 29.5029 38.1394 29.7757 38.1711 30.0343C38.2737 30.8759 39.4703 31.4647 40.036 32.2689" fill="#D7C296"/>
<path d="M27.8955 34.7538C27.8955 34.7538 29.3407 36.7738 30.6382 36.7738C31.9357 36.7738 33.3809 34.7538 33.3809 34.7538L32.725 34.9492C32.2686 35.4848 31.41 36.3621 30.7066 36.3621C30.0049 36.3621 29.1471 35.4848 28.6899 34.9492" fill="#D7C296"/>
<path d="M29.647 31.5403V32.4077L27.546 33.7417L27.4551 34.2589L30.0776 32.594V31.0322" fill="#D7C296"/>
<path d="M27.6103 31.2011L27.5645 30.8293L27.9099 30.0343L27.9908 30.6846" fill="#D7C296"/>
<path d="M25.4217 29.9353C26.0808 29.4239 27.0162 29.0164 27.7288 28.86L28.277 26.4932L28.7876 26.114L28.0717 29.2093C27.1672 29.3 25.5618 30.0651 25.1338 30.7919" fill="#D7C296"/>
<path d="M33.7324 28.86C34.445 29.0164 35.3812 29.4239 36.0404 29.9353L37.181 26.4317L37.6599 26.2737L36.1889 30.7919C35.7609 30.0651 34.1555 29.3 33.251 29.2085" fill="#D0C29D"/>
<path d="M29.7954 24.8184L25.9972 24.2945L25.7503 24.5972L25.5225 24.5132L26.1349 23.8878L30.4671 24.4849" fill="#D7C296"/>
<path d="M30.7158 29.977L31.1839 29.2094H32.4889L31.5277 24.8184L35.3259 24.2945L35.5729 24.5972L35.9233 24.4841L35.3267 23.8878L30.9945 24.4849L31.9382 28.7977H30.972L30.73 29.1927" fill="#D7C296"/>
<path d="M31.1973 32.594L33.819 34.2589C33.819 34.2589 35.5946 33.093 35.5946 31.7699L35.1632 31.9129C35.1189 32.6572 34.2962 33.4024 33.8673 33.7417L31.7663 32.4078" fill="#D7C296"/>
<path d="M29.8635 20.2877C29.4522 20.2037 28.8681 19.284 28.667 18.9297H29.2244C29.8652 18.9297 29.6374 19.6823 29.8635 20.2877Z" fill="#BE9E55"/>
<path d="M24.8778 22.2986C24.3138 22.8341 22.1427 22.5314 21.6846 22.8641C21.9099 22.553 22.0901 22.1771 22.6024 22.0042C23.1932 21.8037 23.8373 22.2245 24.8778 22.2986Z" fill="#BE9E55"/>
<path d="M29.4357 38.0778C30.6114 38.8911 29.2463 40.5477 29.7286 41.6504C29.3615 41.3419 28.9234 40.872 28.9009 40.2624C28.8675 39.3659 29.4107 38.7439 29.4357 38.0778Z" fill="#BE9E55"/>
<path d="M27.1584 35.6145C28.7279 37.0066 26.4917 38.9984 27.2802 41.065C26.8697 40.7706 26.3456 39.9847 26.3607 39.1614C26.3907 37.5247 27.1417 37.1954 27.1584 35.6145Z" fill="#BE9E55"/>
<path d="M24.6404 39.7027C22.7505 37.6869 24.1732 35.8091 25.303 34.0643C25.8837 36.4902 23.7952 36.7264 24.6404 39.7027Z" fill="#BE9E55"/>
<path d="M24.2054 31.636C24.0677 33.5454 22.2212 35.1629 22.1161 36.1949C21.0422 33.9878 23.9009 32.4526 24.2054 31.636Z" fill="#BE9E55"/>
<path d="M23.2582 29.2584C23.2816 29.5029 23.3058 29.7757 23.2741 30.0343C23.1714 30.8759 21.9749 31.4647 21.4092 32.2689C21.4484 31.9629 21.521 31.5978 21.6703 31.1969C21.8881 30.6115 22.6474 29.9021 23.2582 29.2584Z" fill="#BE9E55"/>
<path d="M21.785 27.7573C21.906 27.551 22.2397 27.2708 22.5702 27.0271C22.5384 27.3897 22.5117 27.8088 22.3974 28.0109C22.2472 28.2737 21.8284 28.475 21.5547 28.7261C21.5547 28.7261 21.6824 27.9344 21.785 27.7573Z" fill="#BE9E55"/>
<path d="M23.3036 24.415C23.15 24.6471 21.553 25.5544 21.3711 25.8571C21.3769 25.6675 21.3619 25.4454 21.4262 25.2076C21.5747 24.6587 22.9172 24.5556 23.3036 24.415Z" fill="#BE9E55"/>
<path d="M27.9413 20.3858C26.6104 20.0324 26.169 19.2632 25.8887 18.9247L26.4878 18.9297C26.7314 18.9297 26.9317 19.0029 27.0452 19.165C27.096 19.2382 27.6968 20.0939 27.9413 20.3858Z" fill="#BE9E55"/>
<path d="M25.6249 20.7941C24.2273 20.3625 23.2319 20.0648 22.3107 20.2153C21.8451 20.2918 21.4279 20.6062 21.1309 20.8889C21.1517 19.2232 21.6173 18.592 22.7988 18.4955C23.7843 18.414 24.7638 19.9093 25.6249 20.7941Z" fill="#BE9E55"/>
<path d="M32.0093 38.0778C30.8337 38.8911 32.1996 40.5477 31.7156 41.6504C32.0844 41.3419 32.5225 40.872 32.5442 40.2624C32.5776 39.3659 32.0352 38.7439 32.0093 38.0778Z" fill="#BE9E55"/>
<path d="M34.3156 35.6145C32.7444 37.0066 34.9814 38.9984 34.1929 41.065C34.6035 40.7706 35.1283 39.9847 35.1133 39.1614C35.0832 37.5247 34.3314 37.1954 34.3156 35.6145Z" fill="#BE9E55"/>
<path d="M36.8051 39.7027C38.6951 37.6869 37.2716 35.8091 36.1426 34.0643C35.5619 36.4902 37.6512 36.7264 36.8051 39.7027Z" fill="#BE9E55"/>
<path d="M37.2402 31.636C37.3779 33.5454 39.2244 35.1629 39.3296 36.1949C40.4034 33.9878 37.5448 32.4526 37.2402 31.636Z" fill="#BE9E55"/>
<path d="M38.1873 29.2584C38.1639 29.5029 38.1397 29.7757 38.1714 30.0343C38.2741 30.8759 39.4706 31.4647 40.0363 32.2689C39.9963 31.9629 39.9245 31.5978 39.7752 31.1969C39.5574 30.6115 38.7972 29.9021 38.1873 29.2584Z" fill="#BE9E55"/>
<path d="M39.6611 27.7573C39.5402 27.551 39.2064 27.2708 38.876 27.0271C38.9077 27.3897 38.9344 27.8088 39.0487 28.0109C39.1989 28.2737 39.6178 28.475 39.8914 28.7261C39.8914 28.7261 39.7638 27.9344 39.6611 27.7573Z" fill="#BE9E55"/>
<path d="M38.1426 24.415C38.2961 24.6471 39.8932 25.5544 40.0742 25.8571C40.0684 25.6675 40.0851 25.4454 40.02 25.2076C39.8715 24.6587 38.5289 24.5556 38.1426 24.415Z" fill="#BE9E55"/>
<path d="M36.5674 22.2986C37.1314 22.8341 39.3017 22.5314 39.7606 22.8641C39.5353 22.553 39.3551 22.1771 38.8436 22.0042C38.2529 21.8037 37.6079 22.2245 36.5674 22.2986Z" fill="#BE9E55"/>
<path d="M33.5049 20.3858C34.8358 20.0324 35.2771 19.2632 35.5575 18.9247L34.9584 18.9297C34.7148 18.9297 34.5145 19.0029 34.401 19.165C34.3501 19.2382 33.7494 20.0939 33.5049 20.3858Z" fill="#BE9E55"/>
<path d="M31.582 20.2877C31.9934 20.2037 32.5775 19.284 32.7777 18.9297H32.2203C31.5804 18.9297 31.8082 19.6823 31.582 20.2877Z" fill="#BE9E55"/>
<path d="M35.8213 20.7941C37.2189 20.3625 38.2152 20.0648 39.1364 20.2153C39.602 20.2918 40.0183 20.6062 40.3145 20.8889C40.2937 19.2232 39.8281 18.592 38.6482 18.4955C37.662 18.414 36.6824 19.9093 35.8213 20.7941Z" fill="#BE9E55"/>
<path d="M35.1651 31.8514C35.1184 32.6573 34.2965 33.4024 33.8676 33.7417L31.7666 32.4078V31.5404L33.8034 31.2011L33.8501 30.8293C34.415 31.0871 35.1718 31.5038 35.1651 31.8514Z" fill="#BE9E55"/>
<path d="M32.7238 34.9492C32.2674 35.4848 31.4096 36.3622 30.7062 36.3622C30.0045 36.3622 29.1467 35.4848 28.6895 34.9492L30.707 33.5737" fill="#BE9E55"/>
<path d="M27.6108 31.2011L29.6476 31.5404V32.4078L27.5466 33.7417C27.1052 33.3941 26.2491 32.6157 26.2491 31.8514C26.2424 31.5038 26.9992 31.0871 27.5649 30.8293" fill="#BE9E55"/>
<path d="M30.7308 29.1927L30.4905 28.7977H29.5242L30.4671 24.4849L26.1349 23.8878L25.5225 24.5132L27.0094 22.2046H34.4539L35.9233 24.4841L35.3275 23.8878L30.9953 24.4849L31.939 28.7977H30.9728" fill="#BE9E55"/>
<path d="M36.1265 24.7917L37.1812 26.4317L36.0406 29.9353C35.3814 29.4239 34.4452 29.0164 33.7326 28.8601L33.1836 26.4891C34.3601 26.5257 35.9755 24.9348 36.1265 24.7917Z" fill="#BE9E55"/>
</g>
</g>
<defs>
<clipPath id="clip0_2975_5282">
<rect width="60" height="60" fill="white"/>
</clipPath>
<clipPath id="clip1_2975_5282">
<rect width="40" height="40" fill="white" transform="translate(10 10)"/>
</clipPath>
</defs>
</svg>
