<svg width="60" height="60" viewBox="0 0 60 60" fill="none" xmlns="http://www.w3.org/2000/svg">
<rect width="60" height="60" fill="#A9DBF6"/>
<g clip-path="url(#clip0_1403_8946)">
<path d="M27.7759 11.6258L15.023 18.9264C14.4658 19.2638 14.0325 19.6319 13.7539 20.1227L27.8069 28.2516L27.7759 11.6258Z" fill="#057DC2"/>
<path d="M46.2556 18.9571C45.6366 18.589 30.624 10 30.624 10V29.908L33.286 31.4417V28.3742L47.4938 20.1841C47.2152 19.6626 46.8747 19.3252 46.2556 18.9571Z" fill="black"/>
<path d="M27.8069 28.2208V30.7362L13.7539 39.4171C14.0325 39.9079 14.5587 40.3681 14.9921 40.6135C15.4254 40.8589 30.6546 49.7239 30.6546 49.7239V29.8773L27.8069 28.2208Z" fill="#2C6AAF"/>
<path d="M27.8069 28.2209L13.754 20.092C13.4754 20.5828 13.3516 21.0123 13.3516 21.6565C13.3516 21.6565 13.3516 37.3927 13.3516 37.8835C13.3516 38.4049 13.4754 38.9571 13.754 39.4172L27.8069 30.7362V28.2209Z" fill="#1E4488"/>
<path d="M33.3169 31.411V48.1595C33.3169 48.1595 45.8841 40.9202 46.3175 40.7055C46.7818 40.4601 47.277 40.0613 47.5556 39.5092L33.3169 31.411Z" fill="#057DC2"/>
<path d="M47.9267 21.7484C47.9267 21.1042 47.772 20.6134 47.4934 20.1533L33.2856 28.3435V31.411L47.5244 39.5091C47.8029 39.049 47.9267 38.4969 47.9267 37.8527C47.9577 37.3619 47.9267 22.3926 47.9267 21.7484Z" fill="#1E4488"/>
</g>
<defs>
<clipPath id="clip0_1403_8946">
<rect width="35" height="40" fill="white" transform="translate(13 10)"/>
</clipPath>
</defs>
</svg>
