<svg width="60" height="60" viewBox="0 0 60 60" fill="none" xmlns="http://www.w3.org/2000/svg">
<g clip-path="url(#clip0_2334_3965)">
<rect width="60" height="60" fill="white"/>
<rect width="60" height="60" fill="#CC0000"/>
<g clip-path="url(#clip1_2334_3965)">
<path d="M32.0578 21.3247L34.9845 21.7301C36.2695 21.8923 36.4122 23.1086 36.4122 23.9195V27.8118H23.0634V23.9195C23.0634 23.1086 23.2061 21.8923 24.491 21.7301L27.4178 21.3247V18H10V21.3247L12.9268 21.7301C14.2117 21.8923 14.3545 23.1086 14.3545 23.9195V36.7316C14.3545 37.5425 14.2117 38.7588 12.9268 38.921L10 39.4075V42.7322H27.3464V39.4075L24.4197 39.0021C23.1347 38.8399 22.992 37.6236 22.992 36.8127V32.9204H36.3409V36.8127C36.3409 37.6236 36.1981 38.8399 34.9132 39.0021L31.9864 39.4075V42.7322H49.3328V39.4075L46.4061 39.0021C45.1211 38.8399 44.9784 37.6236 44.9784 36.8127V23.9195C44.9784 23.1086 45.1211 21.8923 46.4061 21.7301L49.3328 21.3247V18H31.9864V21.3247H32.0578Z" fill="white"/>
</g>
</g>
<defs>
<clipPath id="clip0_2334_3965">
<rect width="60" height="60" fill="white"/>
</clipPath>
<clipPath id="clip1_2334_3965">
<rect width="40" height="25" fill="white" transform="translate(10 18)"/>
</clipPath>
</defs>
</svg>
