<svg width="60" height="60" viewBox="0 0 60 60" fill="none" xmlns="http://www.w3.org/2000/svg">
<rect width="60" height="60" fill="black"/>
<g clip-path="url(#clip0_3434_13964)">
<path d="M10 19H15.0646C15.0646 25.1256 15.062 31.2512 15.0646 37.3768C18.0258 37.3794 20.9845 37.3742 23.9432 37.3768C23.9483 38.9127 23.9483 40.4512 23.9432 41.9871C19.2972 41.9871 14.646 41.9871 10 41.9871V19Z" fill="white"/>
<path fill-rule="evenodd" clip-rule="evenodd" d="M37.5762 19H39.3127C42.8631 26.6641 46.4393 34.3178 49.9922 41.9819C49.3385 41.9845 48.6925 41.9871 48.0439 41.9923C47.0698 39.8626 46.1034 37.733 45.1395 35.5982C40.6408 35.5982 36.1421 35.5982 31.6434 35.5982C30.6744 37.7304 29.7183 39.8678 28.7287 41.9948C28.1163 41.9897 27.4987 41.9871 26.8863 41.9845C30.4419 34.3178 34.0078 26.6589 37.5762 19ZM38.4109 21.0031C36.385 25.3063 34.4083 29.6352 32.4186 33.9565C36.4014 33.9496 40.385 33.9496 44.3695 33.9565C42.3824 29.6378 40.4083 25.314 38.4109 21.0031Z" fill="#929497"/>
</g>
<defs>
<clipPath id="clip0_3434_13964">
<rect width="40" height="23" fill="white" transform="translate(10 19)"/>
</clipPath>
</defs>
</svg>
