<svg width="60" height="60" viewBox="0 0 60 60" fill="none" xmlns="http://www.w3.org/2000/svg">
<g clip-path="url(#clip0_2824_4851)">
<rect width="60" height="60" fill="white"/>
<rect width="60" height="60" fill="black"/>
<g clip-path="url(#clip1_2824_4851)">
<path d="M10 19H15.0646C15.0646 25.1256 15.062 31.2512 15.0646 37.3768C18.0258 37.3794 20.9845 37.3742 23.9432 37.3768C23.9483 38.9127 23.9483 40.4512 23.9432 41.9871C19.2972 41.9871 14.646 41.9871 10 41.9871V19Z" fill="white"/>
<path fill-rule="evenodd" clip-rule="evenodd" d="M37.5766 19H39.3131C42.8635 26.6641 46.4397 34.3178 49.9927 41.9819C49.3389 41.9845 48.6929 41.9871 48.0443 41.9923C47.0702 39.8626 46.1038 37.733 45.1399 35.5982C40.6412 35.5982 36.1425 35.5982 31.6438 35.5982C30.6748 37.7304 29.7188 39.8678 28.7291 41.9948C28.1167 41.9897 27.4991 41.9871 26.8867 41.9845C30.4423 34.3178 34.0082 26.6589 37.5766 19ZM38.4113 21.0031C36.3854 25.3063 34.4087 29.6352 32.419 33.9565C36.4018 33.9496 40.3854 33.9496 44.3699 33.9565C42.3828 29.6378 40.4087 25.314 38.4113 21.0031Z" fill="#929497"/>
</g>
</g>
<defs>
<clipPath id="clip0_2824_4851">
<rect width="60" height="60" fill="white"/>
</clipPath>
<clipPath id="clip1_2824_4851">
<rect width="40" height="23" fill="white" transform="translate(10 19)"/>
</clipPath>
</defs>
</svg>
