<svg width="60" height="60" viewBox="0 0 60 60" fill="none" xmlns="http://www.w3.org/2000/svg">
<rect width="60" height="60" fill="#1E3F2A"/>
<g clip-path="url(#clip0_146_181)">
<path d="M37.5032 16.9268C40.4588 16.9268 42.8562 29.5941 42.8562 45.2381H47.1691C47.1691 28.3956 42.8182 14.7619 37.4905 14.7619C34.4461 14.7619 31.7569 18.8469 29.981 25.2643C28.2051 18.8469 25.5159 14.7619 22.4968 14.7619C17.1691 14.7619 12.8309 28.3828 12.8309 45.2252H17.1438C17.1438 29.5812 19.5159 16.9268 22.4715 16.9268C25.4271 16.9268 27.8245 28.6276 27.8245 43.0603H32.1121C32.1121 28.6276 34.5222 16.9268 37.4778 16.9268" fill="#FFCC00"/>
</g>
<defs>
<clipPath id="clip0_146_181">
<rect width="36" height="32" fill="white" transform="translate(12 14)"/>
</clipPath>
</defs>
</svg>
