<svg width="60" height="60" viewBox="0 0 60 60" fill="none" xmlns="http://www.w3.org/2000/svg">
<rect width="60" height="60" fill="black"/>
<g clip-path="url(#clip0_150_734)">
<path d="M10.6027 36.152H16.3547C18.0827 36.152 18.8747 35.4693 18.8747 33.52V29.4373C18.8747 23.352 21.728 20.1733 27.1787 20.1733C30.032 20.1733 32.1947 21.1867 33.48 23.136C34.8213 21.1867 36.88 20.1733 39.7307 20.1733C45.184 20.1733 48.0347 23.352 48.0347 29.4373V39.8507H43.9787V29.4373C43.9787 25.68 42.472 23.8747 39.7307 23.8747C36.9893 23.8747 35.4827 25.6827 35.4827 29.4373V39.8507H31.4267V29.4373C31.4267 25.68 29.92 23.8747 27.1787 23.8747C24.4373 23.8747 22.9307 25.6827 22.9307 29.4373V33.52C22.9307 38.0693 20.736 39.8507 16.352 39.8507H10.6027V36.1493V36.152Z" fill="white"/>
</g>
<defs>
<clipPath id="clip0_150_734">
<rect width="40" height="40" fill="white" transform="translate(10 10)"/>
</clipPath>
</defs>
</svg>
