<svg width="60" height="60" viewBox="0 0 60 60" fill="none" xmlns="http://www.w3.org/2000/svg">
<g clip-path="url(#clip0_150_986)">
<rect width="60" height="60" fill="#76BC1C"/>
<g clip-path="url(#clip1_150_986)">
<path d="M31.7406 33.3514C33.478 33.3514 34.8865 31.9719 34.8865 30.2703C34.8865 28.5687 33.478 27.1892 31.7406 27.1892C30.0031 27.1892 28.5946 28.5687 28.5946 30.2703C28.5946 31.9719 30.0031 33.3514 31.7406 33.3514Z" fill="#253764"/>
<path d="M42.5081 15.2162C39.339 13.0419 35.5838 11.8826 31.7405 11.8919C21.373 11.8919 12.973 20.1189 12.973 30.2703C12.973 40.4216 21.373 48.6487 31.7405 48.6487C35.7081 48.6487 39.3946 47.4378 42.4432 45.373C42.8324 45.1027 43.1567 44.8541 43.3622 44.4C43.6757 43.7297 43.7622 39.8595 42.2486 41.2433C39.391 43.8981 35.641 45.3834 31.7405 45.4054C23.2432 45.4054 16.2162 38.5838 16.2162 30.2703C16.2162 21.9568 23.2432 15.1351 31.7405 15.1351C35.6324 15.1351 39.2 16.6487 41.9027 18.9838C43.5027 20.3676 43.773 17.1568 43.4378 16.3027C43.2583 15.8514 42.9354 15.4716 42.5189 15.2216L42.5081 15.2162Z" fill="white"/>
<path d="M24.5406 40.3837C26.7351 42.0215 29.4595 42.9945 32.4108 42.9945C35.821 43.0291 39.1054 41.7082 41.5421 39.3222C43.9787 36.9362 45.3683 33.6803 45.4054 30.2702C45.3683 26.86 43.9787 23.6041 41.5421 21.2181C39.1054 18.8321 35.821 17.5112 32.4108 17.5458C29.4595 17.5458 26.7351 18.5188 24.5514 20.1404C24.3784 20.2702 24.227 20.4431 24.1189 20.6269C23.6865 21.3404 23.8703 23.8161 24.9405 23.4485C25.373 23.308 25.6757 22.8864 26.0108 22.6161C27.8264 21.1618 30.0847 20.3722 32.4108 20.3783C38 20.3783 42.5189 24.8107 42.5189 30.2702C42.5048 31.5834 42.2321 32.881 41.7165 34.0889C41.2009 35.2967 40.4524 36.3912 39.5137 37.3097C38.5751 38.2283 37.4647 38.953 36.246 39.4424C35.0273 39.9318 33.7241 40.1763 32.4108 40.162C29.9926 40.1682 27.6512 39.3136 25.8054 37.7512C25.5676 37.5458 25.3405 37.2431 25.027 37.135C23.2973 36.5404 23.6433 39.7296 24.5514 40.3999L24.5406 40.3837Z" fill="white"/>
<path d="M36.6486 24.081C35.2724 23.0726 33.6088 22.5326 31.9027 22.5404C27.5459 22.5404 24.0108 25.9999 24.0108 30.2702C24.0336 32.3413 24.8776 34.3187 26.3573 35.768C27.837 37.2173 29.8315 38.0201 31.9027 37.9999C33.654 37.9999 35.2649 37.4485 36.573 36.508C36.8973 36.281 37.1676 36.0756 37.254 35.6756C37.4703 34.6918 36.8108 33.0269 35.9784 33.9242C35.2243 34.725 34.2494 35.284 33.1774 35.5304C32.1053 35.7767 30.9843 35.6993 29.9562 35.308C28.9282 34.9167 28.0394 34.2291 27.4025 33.3323C26.7656 32.4354 26.4091 31.3697 26.3784 30.2702C25.7496 29.6062 25.2945 28.7972 25.0533 27.9152C24.8121 27.0331 24.7923 26.1052 24.9957 25.2136C25.1991 24.3221 25.6194 23.4945 26.2193 22.8043C26.8192 22.1141 27.5801 21.5827 28.4346 21.257C29.2891 20.9314 30.2108 20.8217 31.1179 20.9377C32.0249 21.0536 32.8894 21.3916 33.6345 21.9217C34.3796 22.4518 34.9824 23.1576 35.3894 23.9765C35.7964 24.7954 35.995 25.7021 35.9676 26.6161C36.7676 27.481 37.5351 25.8594 37.2649 24.8648C37.1784 24.508 36.9405 24.3026 36.6486 24.0972V24.081Z" fill="white"/>
</g>
</g>
<defs>
<clipPath id="clip0_150_986">
<rect width="60" height="60" fill="white"/>
</clipPath>
<clipPath id="clip1_150_986">
<rect width="60" height="60" fill="white"/>
</clipPath>
</defs>
</svg>
