<svg width="60" height="60" viewBox="0 0 60 60" fill="none" xmlns="http://www.w3.org/2000/svg">
<rect width="60" height="60" fill="black"/>
<g clip-path="url(#clip0_1772_9311)">
<path d="M29.4827 49.9588L11.1412 49.9395V48.9946C11.1412 47.6385 11.28 45.1171 11.4131 44.0547C11.6358 42.278 12.4162 38.8007 12.9895 37.0306C14.2034 33.2825 16.1244 29.6247 18.6117 26.325C20.6249 23.6544 23.4214 20.799 25.6846 19.1033C29.4033 16.3171 32.3683 14.7 36.2582 13.3365C40.3036 11.9186 43.8042 11.284 48.2632 11.1603L50 11.1121V29.9639C50 47.2302 49.9895 48.8377 49.8756 49.0765C49.599 49.6563 48.8832 50.0387 48.153 49.9969C47.9722 49.9865 39.5705 49.9694 29.4827 49.9588ZM18.6228 43.8046L18.89 43.7452L18.9376 43.2165C18.9637 42.9258 18.9746 42.6759 18.9617 42.6613C18.9489 42.6466 18.7192 42.6893 18.4513 42.7562C17.8416 42.9082 16.936 42.9124 16.4385 42.7655C15.5806 42.5121 15.0368 41.7399 15.0354 40.7733C15.034 39.7066 15.5464 38.925 16.4155 38.6683C16.9138 38.5211 17.9164 38.5157 18.4511 38.6572L18.8519 38.7634V38.2062V37.649L18.4129 37.5866C18.1715 37.5523 17.5445 37.5242 17.0196 37.5242C15.7696 37.5242 15.142 37.7101 14.5377 38.2594C13.7635 38.9632 13.4721 39.7191 13.5217 40.8948C13.5467 41.489 13.5916 41.7095 13.763 42.0804C14.198 43.0214 15.0753 43.6586 16.2202 43.8652C16.6329 43.9396 18.1925 43.9003 18.6228 43.8046ZM47.2516 43.6914L47.7479 43.598L47.7686 42.1368L47.7893 40.6755L47.1579 40.6755L46.5264 40.6754L46.5531 41.7082C46.5707 42.3877 46.5514 42.7693 46.4965 42.8239C46.4507 42.8695 46.1122 42.9205 45.7445 42.9373C45.1242 42.9655 45.0455 42.9519 44.6571 42.7485C44.073 42.4426 43.7927 41.9855 43.7522 41.2725C43.7268 40.8259 43.7516 40.6909 43.9239 40.3408C44.1349 39.9119 44.4611 39.6124 44.9423 39.4058C45.3345 39.2374 46.3911 39.2413 46.9736 39.4134C47.2195 39.486 47.4401 39.5262 47.4637 39.5027C47.5148 39.4519 47.505 38.7001 47.4527 38.648C47.3669 38.5627 46.7727 38.4728 45.992 38.4269C44.7072 38.3515 43.9402 38.5957 43.2241 39.3079C42.6902 39.839 42.5565 40.2042 42.5565 41.1311C42.5565 41.7818 42.5861 41.9921 42.7173 42.2741C43.1045 43.1064 43.8916 43.657 44.9232 43.8171C45.2775 43.8721 46.6991 43.7953 47.2516 43.6914ZM23.1123 43.5779C23.6253 43.3787 24.1422 42.9595 24.3793 42.5502C24.7514 41.9082 24.8122 40.9293 24.5371 40.0079C24.3838 39.4944 23.8852 38.9905 23.2206 38.6773C22.7261 38.4443 22.6721 38.4356 21.7529 38.4402C20.5213 38.4464 20.079 38.5974 19.4598 39.2232C18.8927 39.7962 18.7455 40.246 18.7905 41.269C18.8153 41.8338 18.8617 42.0788 18.9905 42.325C19.3509 43.014 19.9109 43.4761 20.6285 43.6765C21.2121 43.8395 22.5783 43.7853 23.1123 43.5779ZM21.333 42.8854C20.6802 42.7193 20.2093 42.2603 20.081 41.665C19.9024 40.8368 20.0575 40.1613 20.5219 39.7439C20.9103 39.3949 21.2689 39.2858 21.9093 39.3218C22.5636 39.3586 22.9864 39.6216 23.2689 40.1676C23.6316 40.8687 23.4821 42.003 22.9647 42.4754C22.5997 42.8086 21.8104 43.0069 21.333 42.8854ZM26.1808 41.5108V39.3087H26.8576C27.4202 39.3087 27.5674 39.3345 27.7297 39.4615C27.9825 39.6592 28.0516 39.9813 27.9123 40.3129C27.7712 40.6487 27.3981 40.8274 26.8382 40.8274H26.4116L27.2585 42.2132C27.7242 42.9755 28.1307 43.6261 28.1616 43.6592C28.1926 43.6922 28.5155 43.7093 28.8792 43.6971L29.5406 43.675L28.7015 42.536C28.24 41.9095 27.8619 41.3754 27.8614 41.349C27.8608 41.3226 28.0071 41.2643 28.1865 41.2194C28.8988 41.041 29.349 40.1257 29.0772 39.4085C28.9393 39.0446 28.5434 38.7042 28.1134 38.5799C27.8074 38.4914 27.4 38.4702 26.3524 38.4881L24.9894 38.5113L24.9904 41.1122L24.9914 43.713H25.5861H26.1808L26.1808 41.5108ZM30.7766 41.8349L30.7536 39.9567L31.204 40.6029C31.4517 40.9583 32.0257 41.8035 32.4796 42.481L33.3049 43.713H34.0563H34.8077V41.0932V38.4734H34.1887C33.6303 38.4734 33.5749 38.4864 33.622 38.6063C33.7048 38.8173 33.7665 41.1918 33.7042 41.7699L33.6477 42.2947L33.1548 41.5421C32.8836 41.1281 32.3174 40.2683 31.8964 39.6314L31.1309 38.4734L30.3927 38.4734L29.6545 38.4735V41.0933V43.713L30.227 43.7131L30.7996 43.7131L30.7766 41.8349ZM36.6188 41.0932L36.6017 38.4734L35.9775 38.4734L35.3532 38.4734L35.3538 41.0932L35.3544 43.713H35.9952H36.636L36.619 41.0932H36.6188ZM38.2585 41.8336L38.2357 39.9541L39.4995 41.8336L40.7634 43.713H41.5136H42.2639V41.0932V38.4734L41.6849 38.4734L41.106 38.4733L41.1317 40.3908C41.1479 41.6062 41.1307 42.2804 41.0847 42.2322C41.0447 42.1905 40.4717 41.3276 39.8113 40.3148L38.6105 38.4734H37.871H37.1315L37.133 41.0932L37.1344 43.713L37.7079 43.713L38.2813 43.7131L38.2585 41.8336ZM24.0926 36.656C25.1494 36.4566 26.0512 35.8337 26.4439 35.0318C26.8674 34.1668 26.8741 32.8078 26.4592 31.9088C26.1077 31.1471 25.1427 30.4468 24.2046 30.2726C23.1646 30.0796 21.9381 30.2361 21.1288 30.6651C19.924 31.3039 19.36 32.7927 19.7306 34.3562C19.8798 34.9856 20.0635 35.3281 20.4663 35.7274C21.2651 36.5194 22.7717 36.9052 24.0926 36.656ZM22.669 35.5926C21.7384 35.4058 21.2204 34.7102 21.1576 33.5626C21.1 32.5106 21.42 31.8924 22.2305 31.4895C23.3792 30.9186 24.7745 31.4252 25.15 32.5496C25.3314 33.0931 25.2826 34.1305 25.0549 34.5678C24.6241 35.3952 23.6883 35.7972 22.669 35.5926ZM46.6499 36.5737C47.3465 36.3813 47.8265 35.7666 47.762 35.1494C47.7143 34.6929 47.4122 34.3012 46.6287 33.6798C46.2582 33.3858 45.886 33.0581 45.8017 32.9515C45.3245 32.3481 46.0391 31.8633 47.0225 32.1232C47.2534 32.1842 47.4492 32.2273 47.4577 32.2188C47.4661 32.2104 47.453 32.0101 47.4284 31.7737C47.3978 31.478 47.3453 31.3287 47.2605 31.2955C47.1926 31.2689 46.8279 31.2287 46.45 31.2062C45.5881 31.1549 45.1936 31.256 44.7883 31.6321C44.5151 31.8855 44.4757 31.9662 44.445 32.335C44.3977 32.9023 44.5866 33.2474 45.2762 33.8535C46.6042 35.0205 46.7076 35.1675 46.4356 35.5015C46.2174 35.7696 45.7463 35.837 45.0672 35.6975C44.7483 35.632 44.4792 35.589 44.4693 35.6021C44.4594 35.6151 44.4716 35.8137 44.4964 36.0434L44.5414 36.4611L44.9995 36.5477C45.5897 36.6593 46.2995 36.6705 46.6499 36.5737ZM29.6471 35.7527C29.7623 35.3422 30.0381 34.4337 30.2598 33.7338L30.663 32.4613L30.8745 33.1323C31.3095 34.5124 31.755 36.0136 31.8004 36.2522L31.8472 36.499H32.6343H33.4213L33.4736 36.2522C33.7468 34.9608 34.5231 31.7366 34.6113 31.5266L34.7235 31.2594H34.0418C33.3965 31.2594 33.3581 31.2686 33.3234 31.4303C33.3032 31.5242 33.1473 32.326 32.977 33.2119C32.8067 34.0978 32.6402 34.8954 32.6071 34.9844C32.5611 35.108 32.4726 34.8869 32.2323 34.048C32.0593 33.4439 31.8246 32.5683 31.7108 32.1022L31.5039 31.2546L30.663 31.276L29.8221 31.2974L29.4963 32.5503C29.3171 33.2395 29.0711 34.1108 28.9496 34.4867L28.7288 35.1701L28.4122 33.5375C28.238 32.6396 28.074 31.7596 28.0476 31.5821L27.9997 31.2594H27.3141C26.6963 31.2594 26.6327 31.2725 26.6702 31.3923C26.8284 31.898 27.7086 35.5031 27.7827 35.9485L27.8742 36.499H28.6558H29.4375L29.6471 35.7527ZM38.6548 36.3789C38.6803 36.3128 38.7012 36.1155 38.7012 35.9404V35.6221L37.4033 35.6517L36.1055 35.6813V35V34.3188L36.6781 34.2757C36.993 34.252 37.5083 34.252 37.8232 34.2757L38.3958 34.3188V33.8639V33.4091L37.2506 33.4456L36.1055 33.4822V32.7875V32.0929L37.4033 32.1436L38.7012 32.1944V31.847C38.7012 31.2191 38.8366 31.2594 36.7272 31.2594H34.8458V33.8792V36.499L36.7272 36.499C38.3723 36.499 38.6143 36.4839 38.6548 36.3789ZM40.1694 34.6653L40.1899 32.8315L41.4114 34.6634L42.6329 36.4953L43.3963 36.4968L44.1597 36.4983L44.172 33.8789L44.1844 31.2594H43.5804H42.9764V33.1301C42.9764 34.9634 42.9736 34.9971 42.8355 34.8197C42.758 34.7201 42.2046 33.8783 41.6056 32.949L40.5165 31.2594L39.7424 31.2594L38.9684 31.2594V33.8792V36.499L39.5587 36.499L40.149 36.499L40.1694 34.6653ZM10.0001 28.3928C10.0024 19.5073 10.0324 11.9705 10.0668 11.6443C10.1185 11.1537 10.1684 11.003 10.3558 10.7711C10.7152 10.3263 11.1157 10.1471 11.9242 10.0693C12.7537 9.98942 39.7658 9.97286 43.3266 10.05L45.7629 10.1028L44.8086 10.1987C40.2471 10.6569 35.5017 12.0639 31.1509 14.2479C21.8599 18.912 15.0802 26.8045 11.6459 36.9546C10.9409 39.038 10.5509 40.8365 10.2501 43.3903C10.1751 44.0272 10.0873 44.5483 10.0549 44.5483C10.0225 44.5483 9.99788 37.2783 10.0001 28.3928Z" fill="#DE222C"/>
</g>
<defs>
<clipPath id="clip0_1772_9311">
<rect width="40" height="40" fill="white" transform="translate(10 10)"/>
</clipPath>
</defs>
</svg>
