<svg width="60" height="60" viewBox="0 0 60 60" fill="none" xmlns="http://www.w3.org/2000/svg">
<rect width="60" height="60" fill="#0B4875"/>
<g clip-path="url(#clip0_168_187)">
<path d="M11.6001 48.5632C9.9264 47.1053 9 44.8361 9 42.3838V17.9209C9 15.2417 10.2147 13.6104 12.235 12.2114C13.2769 11.6891 14.3719 11.5135 15.3534 11.6891C16.3381 11.8036 17.9545 11.9802 20.3214 14.1895C21.2468 15.0683 27.0256 19.4323 27.8916 20.6579C28.7587 21.8247 29.7953 23.0481 30.0858 24.1549C31.009 27.1831 28.8742 28.8754 28.8742 28.8754" fill="white"/>
<path d="M17.6077 10H42.9661C47.3003 10 50.1304 13.4371 50.1304 17.8064V42.3838C50.1304 46.8163 46.7215 50.1945 42.3895 50.1945H21.4786C25.4641 45.2985 34.3582 33.476 35.6895 31.7869C37.131 29.919 40.1403 31.6092 40.1403 31.6092L46.3188 35.9208L50.0148 30.9134C50.0148 30.9134 48.4567 29.8655 46.7215 28.4076C42.9661 25.2596 37.8826 20.4867 34.4758 18.3288C29.564 15.1261 22.1125 11.748 18.9358 10.6412C18.5881 10.4635 18.2436 10.4046 17.896 10.289" fill="white"/>
</g>
<defs>
<clipPath id="clip0_168_187">
<rect width="42" height="41" fill="white" transform="translate(9 10)"/>
</clipPath>
</defs>
</svg>
