<svg width="60" height="60" viewBox="0 0 60 60" fill="none" xmlns="http://www.w3.org/2000/svg">
<g clip-path="url(#clip0_2398_3687)">
<rect width="60" height="60" fill="white"/>
<rect width="60" height="60" fill="#0066FF"/>
<g clip-path="url(#clip1_2398_3687)">
<path d="M15.9683 21.9468C12.6675 21.9468 10 19.2802 10 15.9823C10 12.6819 12.6675 10.0153 15.9683 10.0153C19.2717 10.0153 21.9392 12.6819 21.9392 15.9823C21.9392 19.2802 19.2717 21.9468 15.9683 21.9468ZM29.9949 21.9468C26.6941 21.9468 24.0266 19.2802 24.0266 15.9823C24.0266 12.6819 26.6941 10.0153 29.9949 10.0153C33.2958 10.0153 35.9658 12.6819 35.9658 15.9823C35.9658 19.2802 33.2958 21.9468 29.9949 21.9468ZM44.0241 21.9468C40.7232 21.9468 38.0557 19.2802 38.0557 15.9823C38.0557 12.6819 40.7232 10.0153 44.0241 10.0153C47.3249 10.0153 49.9924 12.6819 49.9924 15.9823C49.9924 19.2802 47.3249 21.9468 44.0241 21.9468ZM29.9949 35.9696C26.6941 35.9696 24.0266 33.303 24.0266 30.0026C24.0266 26.7047 26.6941 24.0355 29.9949 24.0355C33.2958 24.0355 35.9658 26.7047 35.9658 30.0026C35.9658 33.303 33.2958 35.9696 29.9949 35.9696ZM29.9949 49.9924C26.6941 49.9924 24.0266 47.3258 24.0266 44.0254C24.0266 40.725 26.6941 38.0584 29.9949 38.0584C33.2958 38.0584 35.9658 40.725 35.9658 44.0254C35.9658 47.3258 33.2958 49.9924 29.9949 49.9924Z" fill="white"/>
</g>
</g>
<defs>
<clipPath id="clip0_2398_3687">
<rect width="60" height="60" fill="white"/>
</clipPath>
<clipPath id="clip1_2398_3687">
<rect width="40" height="40" fill="white" transform="translate(10 10)"/>
</clipPath>
</defs>
</svg>
