<svg width="60" height="60" viewBox="0 0 60 60" fill="none" xmlns="http://www.w3.org/2000/svg">
<rect width="60" height="60" fill="black"/>
<g clip-path="url(#clip0_1985_9543)">
<path d="M22.3636 16H17.2727C16.5698 16 16 16.5698 16 17.2727V22.3636C16 23.0665 16.5698 23.6364 17.2727 23.6364H22.3636C23.0665 23.6364 23.6364 23.0665 23.6364 22.3636V17.2727C23.6364 16.5698 23.0665 16 22.3636 16Z" fill="white"/>
<path d="M32.5455 16H27.4545C26.7516 16 26.1818 16.5698 26.1818 17.2727V22.3636C26.1818 23.0665 26.7516 23.6364 27.4545 23.6364H32.5455C33.2484 23.6364 33.8182 23.0665 33.8182 22.3636V17.2727C33.8182 16.5698 33.2484 16 32.5455 16Z" fill="white"/>
<path d="M42.7273 16H37.6364C36.9335 16 36.3636 16.5698 36.3636 17.2727V22.3636C36.3636 23.0665 36.9335 23.6364 37.6364 23.6364H42.7273C43.4302 23.6364 44 23.0665 44 22.3636V17.2727C44 16.5698 43.4302 16 42.7273 16Z" fill="white"/>
<path d="M22.3636 26.1818H17.2727C16.5698 26.1818 16 26.7516 16 27.4545V32.5454C16 33.2483 16.5698 33.8181 17.2727 33.8181H22.3636C23.0665 33.8181 23.6364 33.2483 23.6364 32.5454V27.4545C23.6364 26.7516 23.0665 26.1818 22.3636 26.1818Z" fill="white"/>
<path d="M32.5455 26.1818H27.4545C26.7516 26.1818 26.1818 26.7516 26.1818 27.4545V32.5454C26.1818 33.2483 26.7516 33.8181 27.4545 33.8181H32.5455C33.2484 33.8181 33.8182 33.2483 33.8182 32.5454V27.4545C33.8182 26.7516 33.2484 26.1818 32.5455 26.1818Z" fill="white"/>
<path d="M42.7273 26.1818H37.6364C36.9335 26.1818 36.3636 26.7516 36.3636 27.4545V32.5454C36.3636 33.2483 36.9335 33.8181 37.6364 33.8181H42.7273C43.4302 33.8181 44 33.2483 44 32.5454V27.4545C44 26.7516 43.4302 26.1818 42.7273 26.1818Z" fill="white"/>
<path d="M22.3636 36.3636H17.2727C16.5698 36.3636 16 36.9335 16 37.6364V42.7273C16 43.4302 16.5698 44 17.2727 44H22.3636C23.0665 44 23.6364 43.4302 23.6364 42.7273V37.6364C23.6364 36.9335 23.0665 36.3636 22.3636 36.3636Z" fill="white"/>
<path d="M32.5455 36.3636H27.4545C26.7516 36.3636 26.1818 36.9335 26.1818 37.6364V42.7273C26.1818 43.4302 26.7516 44 27.4545 44H32.5455C33.2484 44 33.8182 43.4302 33.8182 42.7273V37.6364C33.8182 36.9335 33.2484 36.3636 32.5455 36.3636Z" fill="white"/>
<path d="M42.7273 36.3636H37.6364C36.9335 36.3636 36.3636 36.9335 36.3636 37.6364V42.7273C36.3636 43.4302 36.9335 44 37.6364 44H42.7273C43.4302 44 44 43.4302 44 42.7273V37.6364C44 36.9335 43.4302 36.3636 42.7273 36.3636Z" fill="white"/>
</g>
<defs>
<clipPath id="clip0_1985_9543">
<rect width="28" height="28" fill="white" transform="translate(16 16)"/>
</clipPath>
</defs>
</svg>
